Coordinates
version=1
nRows=17
nColumns=40
inDegrees=yes

Units are S.I. units (second, meters, Newtons, ...)
Angles are in degrees.

endheader
time	pelvis_tilt	pelvis_list	pelvis_rotation	pelvis_tx	pelvis_ty	pelvis_tz	hip_flexion_r	hip_adduction_r	hip_rotation_r	knee_angle_r	knee_angle_r_beta	ankle_angle_r	subtalar_angle_r	mtp_angle_r	hip_flexion_l	hip_adduction_l	hip_rotation_l	knee_angle_l	knee_angle_l_beta	ankle_angle_l	subtalar_angle_l	mtp_angle_l	lumbar_extension	lumbar_bending	lumbar_rotation	arm_flex_r	arm_add_r	arm_rot_r	elbow_flex_r	pro_sup_r	wrist_flex_r	wrist_dev_r	arm_flex_l	arm_add_l	arm_rot_l	elbow_flex_l	pro_sup_l	wrist_flex_l	wrist_dev_l
      0.72000000	     -6.00428269	     -5.55610733	      5.74176016	      1.03071991	      0.91504235	      0.55111770	     19.20331822	      5.27518845	    -10.21463766	     26.58914640	     26.58914640	     16.07618695	     -6.45777695	     -0.81291896	     22.16734076	    -14.47201202	      4.01692871	     66.53300487	     66.53300487	     16.38068130	    -19.21699453	     16.23257091	     -9.27924287	      4.72662985	     -1.45090999	     42.74375805	    -24.17790257	     -9.90681336	     72.77648431	     44.53435977	      0.00000000	      0.00000000	     -4.49407583	    -11.01278011	      9.14783942	     28.63966247	     44.62277155	      0.00000000	      0.00000000
      0.74214286	     -5.66724081	     -5.49917577	      6.57129519	      1.02899146	      0.91226997	      0.55165063	     19.57630632	      5.28907204	     -9.87495496	     28.25915242	     28.25915242	     16.76423102	     -8.55342178	     -0.87204800	     22.47110461	    -14.38836351	      4.62684649	     67.34402385	     67.34402385	     16.89632906	    -19.26169977	     17.94575879	     -9.38500757	      4.73169251	     -1.56324276	     45.37576354	    -24.49236637	     -9.46763609	     74.55011958	     44.51441773	      0.00000000	      0.00000000	     -6.56907039	    -11.04043985	      9.63481252	     28.02556397	     44.56540610	      0.00000000	      0.00000000
      0.76428571	     -5.28662840	     -5.45537449	      7.46747016	      1.02718479	      0.90953024	      0.55206803	     19.83844641	      5.30777292	     -9.70083736	     29.82589776	     29.82589776	     17.44922181	    -10.42082366	     -0.87623454	     22.81101969	    -14.39862275	      5.14654923	     67.88397523	     67.88397523	     17.21720979	    -19.33732006	     18.93867480	     -9.55587296	      4.76054778	     -1.59636032	     48.11682672	    -24.81630619	     -9.10644102	     76.21004016	     44.49127598	      0.00000000	      0.00000000	     -8.72288195	    -11.15637214	     10.15943302	     27.79723426	     44.48316176	      0.00000000	      0.00000000
      0.78642857	     -4.91886782	     -5.33736155	      8.38759449	      1.02525254	      0.90696152	      0.55224906	     20.05740352	      5.22313677	     -9.62930139	     31.31842338	     31.31842338	     18.10148467	    -12.08723732	     -0.86487707	     23.25207627	    -14.37940363	      5.51018564	     68.06350777	     68.06350777	     17.54525255	    -19.42145045	     19.66361275	     -9.71980261	      4.70959659	     -1.44464814	     50.85869035	    -25.24036253	     -8.91472969	     77.51076048	     44.47307984	      0.00000000	      0.00000000	    -10.66274973	    -11.22682020	     10.59502486	     27.47009988	     44.40300539	      0.00000000	      0.00000000
      0.80857143	     -4.47444151	     -5.26549667	      9.34980791	      1.02323858	      0.90494337	      0.55211860	     19.97287358	      5.13434217	     -9.87511405	     32.39481995	     32.39481995	     18.68495326	    -13.15087268	     -0.97254936	     23.79905083	    -14.46873698	      5.75958177	     67.85259741	     67.85259741	     17.75387328	    -19.48126588	     19.95981704	     -9.98247150	      4.75037754	     -0.91643475	     53.48389307	    -25.98410475	     -9.12008457	     78.38673012	     44.46848063	      0.00000000	      0.00000000	    -12.20312221	    -11.24611796	     10.76040455	     27.03336059	     44.35705628	      0.00000000	      0.00000000
      0.83071429	     -4.16070724	     -5.11589871	     10.26401903	      1.02096354	      0.90328169	      0.55174563	     19.99784459	      5.01329658	     -9.88333947	     33.39218648	     33.39218648	     19.13188639	    -14.62755492	     -0.70180800	     24.61821763	    -14.42961585	      5.86112627	     67.20573618	     67.20573618	     18.30938394	    -19.53481152	     20.76333919	    -10.15204096	      4.71149373	     -0.65014971	     56.22212708	    -26.16808629	     -8.73641770	     79.37632083	     44.44640560	      0.00000000	      0.00000000	    -13.68865836	    -11.24234818	     11.15487011	     26.75323670	     44.27864041	      0.00000000	      0.00000000
      0.85285714	     -3.88419827	     -4.97181400	     11.22610896	      1.01854204	      0.90242091	      0.55094174	     19.85541666	      4.84683251	    -10.08195536	     34.05234852	     34.05234852	     20.11998923	    -15.32822056	      1.44922668	     25.67374420	    -14.22688881	      6.03197897	     66.14611795	     66.14611795	     19.29984848	    -19.56673650	     22.71130417	    -10.26030335	      4.65827628	     -0.94283267	     59.37566519	    -26.06263676	     -7.00185619	     78.47664116	     44.55137519	      0.00000000	      0.00000000	    -15.95390170	    -11.81679173	     14.52820436	     28.28630494	     43.84122059	      0.00000000	      0.00000000
      0.87500000	     -3.72045726	     -4.77170338	     12.17775404	      1.01597875	      0.90237963	      0.54972175	     19.51937096	      4.51944921	    -10.54885633	     34.11797525	     34.11797525	     20.30122731	    -15.81757592	      1.50551294	     26.84244995	    -13.87093777	      6.05019206	     64.42847062	     64.42847062	     19.65044681	    -19.58623859	     22.67293850	    -10.31649445	      4.50579291	     -0.34910696	     61.39534984	    -26.50433303	     -7.17234228	     79.03953309	     44.55284529	      0.00000000	      0.00000000	    -16.84977181	    -11.68214302	     14.68617270	     28.01435147	     43.81257126	      0.00000000	      0.00000000
      0.89714286	     -3.60778023	     -4.51159944	     13.05250462	      1.01320290	      0.90321010	      0.54814357	     19.05652870	      4.11413624	    -11.01961389	     33.86399798	     33.86399798	     20.35323956	    -16.18370742	      1.68402381	     28.01287822	    -13.27476864	      6.02932360	     62.14773328	     62.14773328	     19.98010775	    -19.58406931	     22.61222123	    -10.39808199	      4.31835001	      0.23054733	     63.39934104	    -26.77006145	     -7.08397521	     79.43830127	     44.55319156	      0.00000000	      0.00000000	    -17.51483841	    -11.48143736	     14.93151382	     27.83482579	     43.77730810	      0.00000000	      0.00000000
      0.91928571	     -3.74735528	     -4.23268893	     13.90511409	      1.01017466	      0.90470804	      0.54621959	     18.63071659	      3.61090758	    -11.58275730	     33.18656923	     33.18656923	     20.25016936	    -16.27909115	      1.90973695	     29.35771432	    -12.35928925	      6.12975473	     59.30867682	     59.30867682	     20.11320578	    -19.54909990	     22.51317958	    -10.25581461	      3.99460110	      0.79008188	     65.06994296	    -27.01882305	     -7.03244436	     79.69883611	     44.55489346	      0.00000000	      0.00000000	    -18.05869829	    -11.18935542	     15.09414281	     27.75793623	     43.75114175	      0.00000000	      0.00000000
      0.94142857	     -3.69286049	     -3.91531553	     14.66396499	      1.00722206	      0.90733802	      0.54394578	     17.69502508	      3.11772810	    -12.24543126	     31.99639532	     31.99639532	     19.96503433	    -15.95556602	      1.82916913	     30.13889883	    -11.32970222	      6.25290666	     55.69946617	     55.69946617	     19.42489519	    -19.47787834	     20.52760173	    -10.35080892	      3.75623220	      1.00493893	     67.49272377	    -27.02305774	     -5.23910324	     78.42136248	     44.58519066	      0.00000000	      0.00000000	    -18.59901812	    -10.90332716	     16.32515767	     27.72926927	     43.61200087	      0.00000000	      0.00000000
      0.96357143	     -3.86890535	     -3.51363798	     15.33135973	      1.00418324	      0.91032613	      0.54143769	     16.87065218	      2.48937149	    -12.90427938	     30.62073371	     30.62073371	     19.63534996	    -15.53189653	      1.87550524	     30.87546097	     -9.98934528	      6.52626764	     51.62254727	     51.62254727	     18.76302193	    -19.33131193	     19.82665650	    -10.27796760	      3.27667551	      1.54768851	     68.95065933	    -27.06744196	     -5.03986828	     78.34449171	     44.60192536	      0.00000000	      0.00000000	    -18.92731404	    -10.57133149	     16.72086154	     27.93281103	     43.57034673	      0.00000000	      0.00000000
      0.98571429	     -4.17240198	     -3.24404073	     15.92247448	      1.00111067	      0.91332244	      0.53883328	     16.03000366	      1.98355622	    -13.64540249	     28.85856914	     28.85856914	     18.61460359	    -15.06869007	      0.34585330	     31.34887327	     -8.80303403	      6.83515347	     46.81116629	     46.81116629	     16.22571249	    -19.10046338	     14.60626457	    -10.06524199	      2.89707475	      1.82084087	     70.86048541	    -26.78890317	     -3.95536393	     77.25979865	     44.68618749	      0.00000000	      0.00000000	    -19.44621303	    -10.46816120	     18.54899737	     28.67359981	     43.42760227	      0.00000000	      0.00000000
      1.00785714	     -4.52829614	     -2.95834731	     16.37965154	      0.99822542	      0.91639060	      0.53610079	     15.22550898	      1.49559914	    -14.27003745	     27.14305870	     27.14305870	     18.20041072	    -14.31662132	      0.52792275	     31.66580582	     -7.50217859	      7.43598680	     42.06118489	     42.06118489	     15.23300013	    -18.41479547	     14.74796710	     -9.83473953	      2.40406389	      2.43957299	     72.04432890	    -26.72940237	     -3.78343651	     77.32156716	     44.69224273	      0.00000000	      0.00000000	    -19.58350856	    -10.08409849	     18.74021739	     28.85934839	     43.41575948	      0.00000000	      0.00000000
      1.03000000	     -4.79276890	     -2.72519123	     16.69291125	      0.99577471	      0.91930764	      0.53336346	     14.25062743	      1.12525508	    -14.89083538	     25.30752273	     25.30752273	     17.77420178	    -13.26017467	      0.52490648	     31.59661039	     -6.53135921	      7.80889385	     37.24501507	     37.24501507	     14.16421972	    -16.83611146	     14.47948806	     -9.67827003	      1.95389202	      3.02145377	     73.24674315	    -26.54060967	     -3.38998734	     77.21455955	     44.69718983	      0.00000000	      0.00000000	    -19.72876939	     -9.71415970	     18.95409406	     29.05214167	     43.40110664	      0.00000000	      0.00000000
      1.05214286	     -4.86529816	     -2.72938392	     16.94116840	      0.99378545	      0.92158716	      0.53057865	     13.08899099	      1.05001845	    -15.72763114	     23.36765403	     23.36765403	     16.57715508	    -12.30108008	     -2.11818726	     31.00053552	     -6.10612305	      7.90952738	     32.07381799	     32.07381799	     10.62022150	    -15.32676299	      8.18242494	     -9.60519856	      1.84264076	      3.13820718	     75.11506461	    -25.91144030	     -1.75066863	     75.64757819	     44.79632208	      0.00000000	      0.00000000	    -20.23165128	     -9.49762760	     20.46462664	     29.80833691	     43.37242229	      0.00000000	      0.00000000
      1.07428571	     -5.03471161	     -2.69941027	     17.01892996	      0.99211659	      0.92325013	      0.52786301	     12.28557966	      0.97220759	    -16.06031314	     22.00279788	     22.00279788	     16.36164407	    -11.49143057	     -2.04018235	     30.64581095	     -5.71549365	      7.82555333	     28.03749145	     28.03749145	      9.93570098	    -12.58426572	      8.94868102	     -9.45701902	      1.55345411	      3.67644839	     76.01600172	    -25.55160365	     -1.45500671	     75.74403188	     44.79557939	      0.00000000	      0.00000000	    -20.34296944	     -9.18392051	     20.60491694	     29.90764254	     43.37124274	      0.00000000	      0.00000000
